# xmcd CD database file
# Copyright (C) 1993-1996 Ti Kan
#
# Track frame offsets:
#	150
#	12507
#	27750
#	41875
#	56182
#	69200
#	81135
#	93645
#	111687
#	121867
#	136750
#	153692
#	166432
#
# Disc length: 2467 seconds
#
# Revision: 1
# Processed by: cddbd v1.4b41PL1 Copyright (c) Steve Scherf et al.
# Submitted via: CDValet v3.01 - Copyright (c) 1997 Greg Leichner
#
DISCID=b309a10d
DTITLE=Bjoero Haaland - Nashville - Here We Go Again
DYEAR=1900
DGENRE=
TTITLE0=You're the reason
TTITLE1=Next to you
TTITLE2=Here we go again
TTITLE3=I love you because
TTITLE4=Stand at your window
TTITLE5=Burning bridges
TTITLE6=Talk back trembling lips
TTITLE7=It goes without saying
TTITLE8=From a jack to a king
TTITLE9=Guilty
TTITLE10=Somebody's pain in the heart
TTITLE11=Bimbo
TTITLE12=My way
EXTD=
EXTT0=
EXTT1=
EXTT2=
EXTT3=
EXTT4=
EXTT5=
EXTT6=
EXTT7=
EXTT8=
EXTT9=
EXTT10=
EXTT11=
EXTT12=
PLAYORDER=
